<svg width="268" height="111" viewBox="0 0 268 111" fill="none" xmlns="http://www.w3.org/2000/svg">
<path d="M19.9659 86.9091V100H18.4318L11.2983 89.7216H11.1705V100H9.58523V86.9091H11.1193L18.2784 97.2131H18.4062V86.9091H19.9659ZM27.0499 100.205C26.1039 100.205 25.2878 99.9957 24.6017 99.5781C23.9199 99.1562 23.3936 98.5682 23.0229 97.8139C22.6564 97.0554 22.4732 96.1733 22.4732 95.1676C22.4732 94.1619 22.6564 93.2756 23.0229 92.5085C23.3936 91.7372 23.9093 91.1364 24.5698 90.706C25.2346 90.2713 26.0101 90.054 26.8965 90.054C27.4078 90.054 27.9128 90.1392 28.4114 90.3097C28.91 90.4801 29.3638 90.7571 29.7729 91.1406C30.182 91.5199 30.508 92.0227 30.7509 92.6491C30.9938 93.2756 31.1152 94.0469 31.1152 94.9631V95.6023H23.5471V94.2983H29.5811C29.5811 93.7443 29.4703 93.25 29.2488 92.8153C29.0314 92.3807 28.7203 92.0376 28.3155 91.7862C27.915 91.5348 27.4419 91.4091 26.8965 91.4091C26.2956 91.4091 25.7757 91.5582 25.3368 91.8565C24.9022 92.1506 24.5676 92.5341 24.3333 93.0071C24.0989 93.4801 23.9817 93.9872 23.9817 94.5284V95.3977C23.9817 96.1392 24.1096 96.7678 24.3652 97.2834C24.6252 97.7947 24.9853 98.1847 25.4455 98.4531C25.9057 98.7173 26.4405 98.8494 27.0499 98.8494C27.4462 98.8494 27.8042 98.794 28.1238 98.6832C28.4476 98.5682 28.7267 98.3977 28.9611 98.1719C29.1955 97.9418 29.3766 97.6562 29.5044 97.3153L30.9618 97.7244C30.8084 98.2188 30.5506 98.6534 30.1884 99.0284C29.8262 99.3991 29.3787 99.6889 28.8461 99.8977C28.3134 100.102 27.7147 100.205 27.0499 100.205ZM34.9185 94.0938V100H33.41V90.1818H34.8674V91.7159H34.9952C35.2253 91.2173 35.5748 90.8168 36.0435 90.5142C36.5123 90.2074 37.1174 90.054 37.8588 90.054C38.5236 90.054 39.1053 90.1903 39.6039 90.4631C40.1025 90.7315 40.4902 91.1406 40.7672 91.6903C41.0442 92.2358 41.1827 92.9261 41.1827 93.7614V100H39.6742V93.8636C39.6742 93.0923 39.4739 92.4915 39.0733 92.0611C38.6728 91.6264 38.123 91.4091 37.4242 91.4091C36.9426 91.4091 36.5123 91.5135 36.133 91.7223C35.758 91.9311 35.4618 92.2358 35.2445 92.6364C35.0272 93.0369 34.9185 93.5227 34.9185 94.0938ZM45.4478 94.0938V100H43.9393V86.9091H45.4478V91.7159H45.5756C45.8058 91.2088 46.1509 90.8061 46.6112 90.5078C47.0756 90.2053 47.6935 90.054 48.4648 90.054C49.1339 90.054 49.7198 90.1882 50.2227 90.4567C50.7255 90.7209 51.1154 91.1278 51.3924 91.6776C51.6737 92.223 51.8143 92.9176 51.8143 93.7614V100H50.3058V93.8636C50.3058 93.0838 50.1033 92.4808 49.6985 92.0547C49.2979 91.6243 48.7418 91.4091 48.0302 91.4091C47.5359 91.4091 47.0927 91.5135 46.7006 91.7223C46.3129 91.9311 46.006 92.2358 45.7802 92.6364C45.5586 93.0369 45.4478 93.5227 45.4478 94.0938ZM60.7615 95.9858V90.1818H62.2701V100H60.7615V98.3381H60.6593C60.4292 98.8366 60.0712 99.2607 59.5854 99.6101C59.0996 99.9553 58.486 100.128 57.7445 100.128C57.1309 100.128 56.5854 99.9936 56.1081 99.7251C55.6309 99.4524 55.2559 99.0433 54.9831 98.4979C54.7104 97.9482 54.574 97.2557 54.574 96.4205V90.1818H56.0826V96.3182C56.0826 97.0341 56.2828 97.6051 56.6834 98.0312C57.0882 98.4574 57.6039 98.6705 58.2303 98.6705C58.6053 98.6705 58.9867 98.5746 59.3745 98.3828C59.7665 98.1911 60.0946 97.897 60.3588 97.5007C60.6273 97.1044 60.7615 96.5994 60.7615 95.9858ZM66.5415 94.0938V100H65.033V90.1818H66.4904V91.7159H66.6183C66.8484 91.2173 67.1978 90.8168 67.6665 90.5142C68.1353 90.2074 68.7404 90.054 69.4819 90.054C70.1467 90.054 70.7283 90.1903 71.2269 90.4631C71.7255 90.7315 72.1133 91.1406 72.3903 91.6903C72.6673 92.2358 72.8058 92.9261 72.8058 93.7614V100H71.2972V93.8636C71.2972 93.0923 71.0969 92.4915 70.6964 92.0611C70.2958 91.6264 69.7461 91.4091 69.0472 91.4091C68.5657 91.4091 68.1353 91.5135 67.756 91.7223C67.381 91.9311 67.0849 92.2358 66.8675 92.6364C66.6502 93.0369 66.5415 93.5227 66.5415 94.0938ZM80.6248 100V90.1818H82.0822V91.6648H82.1845C82.3635 91.179 82.6873 90.7848 83.1561 90.4822C83.6248 90.1797 84.1532 90.0284 84.7413 90.0284C84.8521 90.0284 84.9906 90.0305 85.1568 90.0348C85.323 90.0391 85.4487 90.0455 85.5339 90.054V91.5881C85.4828 91.5753 85.3656 91.5561 85.1824 91.5305C85.0034 91.5007 84.8137 91.4858 84.6135 91.4858C84.1362 91.4858 83.7101 91.5859 83.335 91.7862C82.9643 91.9822 82.6703 92.255 82.4529 92.6044C82.2399 92.9496 82.1333 93.3437 82.1333 93.7869V100H80.6248ZM91.1397 100.205C90.1937 100.205 89.3777 99.9957 88.6916 99.5781C88.0098 99.1562 87.4835 98.5682 87.1127 97.8139C86.7463 97.0554 86.563 96.1733 86.563 95.1676C86.563 94.1619 86.7463 93.2756 87.1127 92.5085C87.4835 91.7372 87.9991 91.1364 88.6596 90.706C89.3244 90.2713 90.1 90.054 90.9863 90.054C91.4977 90.054 92.0027 90.1392 92.5012 90.3097C92.9998 90.4801 93.4537 90.7571 93.8627 91.1406C94.2718 91.5199 94.5978 92.0227 94.8407 92.6491C95.0836 93.2756 95.2051 94.0469 95.2051 94.9631V95.6023H87.6369V94.2983H93.671C93.671 93.7443 93.5602 93.25 93.3386 92.8153C93.1213 92.3807 92.8102 92.0376 92.4054 91.7862C92.0048 91.5348 91.5318 91.4091 90.9863 91.4091C90.3855 91.4091 89.8656 91.5582 89.4267 91.8565C88.992 92.1506 88.6575 92.5341 88.4231 93.0071C88.1887 93.4801 88.0716 93.9872 88.0716 94.5284V95.3977C88.0716 96.1392 88.1994 96.7678 88.4551 97.2834C88.715 97.7947 89.0751 98.1847 89.5353 98.4531C89.9956 98.7173 90.5304 98.8494 91.1397 98.8494C91.536 98.8494 91.894 98.794 92.2136 98.6832C92.5375 98.5682 92.8166 98.3977 93.051 98.1719C93.2853 97.9418 93.4664 97.6562 93.5943 97.3153L95.0517 97.7244C94.8983 98.2188 94.6404 98.6534 94.2782 99.0284C93.916 99.3991 93.4686 99.6889 92.9359 99.8977C92.4032 100.102 91.8045 100.205 91.1397 100.205ZM104.454 92.3807L103.099 92.7642C103.014 92.5384 102.888 92.3189 102.722 92.1058C102.56 91.8885 102.339 91.7095 102.057 91.5689C101.776 91.4283 101.416 91.358 100.977 91.358C100.376 91.358 99.8755 91.4964 99.475 91.7734C99.0787 92.0462 98.8805 92.3935 98.8805 92.8153C98.8805 93.1903 99.0169 93.4865 99.2896 93.7038C99.5623 93.9212 99.9885 94.1023 100.568 94.2472L102.025 94.6051C102.903 94.8182 103.557 95.1442 103.988 95.5831C104.418 96.0178 104.633 96.5781 104.633 97.2642C104.633 97.8267 104.471 98.3295 104.148 98.7727C103.828 99.2159 103.381 99.5653 102.805 99.821C102.23 100.077 101.561 100.205 100.798 100.205C99.7967 100.205 98.9679 99.9872 98.3116 99.5526C97.6554 99.1179 97.2399 98.483 97.0652 97.6477L98.497 97.2898C98.6333 97.8182 98.8912 98.2145 99.2704 98.4787C99.6539 98.7429 100.155 98.875 100.773 98.875C101.476 98.875 102.034 98.7259 102.447 98.4276C102.865 98.125 103.074 97.7628 103.074 97.3409C103.074 97 102.954 96.7145 102.716 96.4844C102.477 96.25 102.111 96.0753 101.616 95.9602L99.9799 95.5767C99.0808 95.3636 98.4203 95.0334 97.9984 94.5859C97.5808 94.1342 97.372 93.5696 97.372 92.892C97.372 92.3381 97.5275 91.848 97.8386 91.4219C98.1539 90.9957 98.5822 90.6612 99.1234 90.4183C99.6689 90.1754 100.287 90.054 100.977 90.054C101.949 90.054 102.711 90.267 103.265 90.6932C103.824 91.1193 104.22 91.6818 104.454 92.3807ZM113.092 95.9858V90.1818H114.6V100H113.092V98.3381H112.989C112.759 98.8366 112.401 99.2607 111.915 99.6101C111.43 99.9553 110.816 100.128 110.075 100.128C109.461 100.128 108.915 99.9936 108.438 99.7251C107.961 99.4524 107.586 99.0433 107.313 98.4979C107.04 97.9482 106.904 97.2557 106.904 96.4205V90.1818H108.413V96.3182C108.413 97.0341 108.613 97.6051 109.013 98.0312C109.418 98.4574 109.934 98.6705 110.56 98.6705C110.935 98.6705 111.317 98.5746 111.705 98.3828C112.097 98.1911 112.425 97.897 112.689 97.5007C112.957 97.1044 113.092 96.5994 113.092 95.9858ZM118.872 86.9091V100H117.363V86.9091H118.872ZM125.904 90.1818V91.4602H120.816V90.1818H125.904ZM122.299 87.8295H123.808V97.1875C123.808 97.6136 123.87 97.9332 123.993 98.1463C124.121 98.3551 124.283 98.4957 124.479 98.5682C124.679 98.6364 124.89 98.6705 125.112 98.6705C125.278 98.6705 125.414 98.6619 125.521 98.6449C125.627 98.6236 125.713 98.6065 125.777 98.5938L126.083 99.9489C125.981 99.9872 125.838 100.026 125.655 100.064C125.472 100.107 125.24 100.128 124.958 100.128C124.532 100.128 124.115 100.036 123.706 99.853C123.301 99.6697 122.964 99.3906 122.696 99.0156C122.431 98.6406 122.299 98.1676 122.299 97.5966V87.8295ZM131.063 100.23C130.441 100.23 129.876 100.113 129.369 99.8786C128.862 99.6399 128.459 99.2969 128.161 98.8494C127.863 98.3977 127.713 97.8523 127.713 97.2131C127.713 96.6506 127.824 96.1946 128.046 95.8452C128.267 95.4915 128.564 95.2145 128.934 95.0142C129.305 94.8139 129.714 94.6648 130.162 94.5668C130.613 94.4645 131.067 94.3835 131.523 94.3239C132.12 94.2472 132.603 94.1896 132.974 94.1513C133.349 94.1087 133.622 94.0384 133.792 93.9403C133.967 93.8423 134.054 93.6719 134.054 93.429V93.3778C134.054 92.7472 133.882 92.2571 133.537 91.9077C133.196 91.5582 132.678 91.3835 131.983 91.3835C131.263 91.3835 130.699 91.5412 130.289 91.8565C129.88 92.1719 129.593 92.5085 129.426 92.8665L127.995 92.3551C128.25 91.7585 128.591 91.294 129.017 90.9616C129.448 90.625 129.917 90.3906 130.424 90.2585C130.935 90.1222 131.438 90.054 131.932 90.054C132.248 90.054 132.61 90.0923 133.019 90.169C133.432 90.2415 133.831 90.3928 134.214 90.6229C134.602 90.853 134.924 91.2003 135.179 91.6648C135.435 92.1293 135.563 92.7514 135.563 93.5312V100H134.054V98.6705H133.978C133.875 98.8835 133.705 99.1115 133.466 99.3544C133.228 99.5973 132.91 99.804 132.514 99.9744C132.118 100.145 131.634 100.23 131.063 100.23ZM131.293 98.875C131.89 98.875 132.392 98.7578 132.801 98.5234C133.215 98.2891 133.526 97.9865 133.735 97.6158C133.948 97.245 134.054 96.8551 134.054 96.446V95.0653C133.99 95.142 133.85 95.2124 133.632 95.2763C133.419 95.3359 133.172 95.3892 132.891 95.4361C132.614 95.4787 132.343 95.517 132.079 95.5511C131.819 95.581 131.608 95.6065 131.446 95.6278C131.054 95.679 130.688 95.7621 130.347 95.8771C130.01 95.9879 129.738 96.1562 129.529 96.3821C129.324 96.6037 129.222 96.9062 129.222 97.2898C129.222 97.8139 129.416 98.2102 129.804 98.4787C130.196 98.7429 130.692 98.875 131.293 98.875ZM142.024 100.205C141.205 100.205 140.483 99.9979 139.857 99.5845C139.23 99.1669 138.74 98.5788 138.387 97.8203C138.033 97.0575 137.856 96.1562 137.856 95.1165C137.856 94.0852 138.033 93.1903 138.387 92.4318C138.74 91.6733 139.232 91.0874 139.863 90.674C140.494 90.2607 141.222 90.054 142.049 90.054C142.688 90.054 143.193 90.1605 143.564 90.3736C143.939 90.5824 144.225 90.821 144.421 91.0895C144.621 91.3537 144.776 91.571 144.887 91.7415H145.015V86.9091H146.524V100H145.066V98.4915H144.887C144.776 98.6705 144.619 98.8963 144.414 99.169C144.21 99.4375 143.918 99.6783 143.539 99.8913C143.159 100.1 142.654 100.205 142.024 100.205ZM142.228 98.8494C142.833 98.8494 143.345 98.6918 143.762 98.3764C144.18 98.0568 144.497 97.6158 144.715 97.0533C144.932 96.4865 145.041 95.8324 145.041 95.0909C145.041 94.358 144.934 93.7166 144.721 93.1669C144.508 92.6129 144.193 92.1825 143.775 91.8757C143.357 91.5646 142.842 91.4091 142.228 91.4091C141.589 91.4091 141.056 91.5732 140.63 91.9013C140.208 92.2251 139.891 92.6662 139.678 93.2244C139.469 93.7784 139.365 94.4006 139.365 95.0909C139.365 95.7898 139.471 96.4247 139.684 96.9957C139.901 97.5625 140.221 98.0142 140.643 98.3509C141.069 98.6832 141.597 98.8494 142.228 98.8494ZM153.485 100.205C152.598 100.205 151.82 99.9936 151.151 99.5717C150.487 99.1499 149.967 98.5597 149.592 97.8011C149.221 97.0426 149.036 96.1562 149.036 95.142C149.036 94.1193 149.221 93.2266 149.592 92.4638C149.967 91.701 150.487 91.1087 151.151 90.6868C151.82 90.2649 152.598 90.054 153.485 90.054C154.371 90.054 155.146 90.2649 155.811 90.6868C156.48 91.1087 157 91.701 157.371 92.4638C157.746 93.2266 157.933 94.1193 157.933 95.142C157.933 96.1562 157.746 97.0426 157.371 97.8011C157 98.5597 156.48 99.1499 155.811 99.5717C155.146 99.9936 154.371 100.205 153.485 100.205ZM153.485 98.8494C154.158 98.8494 154.712 98.6768 155.146 98.3317C155.581 97.9865 155.903 97.5327 156.112 96.9702C156.32 96.4077 156.425 95.7983 156.425 95.142C156.425 94.4858 156.32 93.8743 156.112 93.3075C155.903 92.7408 155.581 92.2827 155.146 91.9332C154.712 91.5838 154.158 91.4091 153.485 91.4091C152.811 91.4091 152.257 91.5838 151.823 91.9332C151.388 92.2827 151.066 92.7408 150.857 93.3075C150.649 93.8743 150.544 94.4858 150.544 95.142C150.544 95.7983 150.649 96.4077 150.857 96.9702C151.066 97.5327 151.388 97.9865 151.823 98.3317C152.257 98.6768 152.811 98.8494 153.485 98.8494ZM169.415 100.205C168.469 100.205 167.653 99.9957 166.967 99.5781C166.285 99.1562 165.759 98.5682 165.388 97.8139C165.022 97.0554 164.838 96.1733 164.838 95.1676C164.838 94.1619 165.022 93.2756 165.388 92.5085C165.759 91.7372 166.275 91.1364 166.935 90.706C167.6 90.2713 168.375 90.054 169.262 90.054C169.773 90.054 170.278 90.1392 170.777 90.3097C171.275 90.4801 171.729 90.7571 172.138 91.1406C172.547 91.5199 172.873 92.0227 173.116 92.6491C173.359 93.2756 173.48 94.0469 173.48 94.9631V95.6023H165.912V94.2983H171.946C171.946 93.7443 171.836 93.25 171.614 92.8153C171.397 92.3807 171.086 92.0376 170.681 91.7862C170.28 91.5348 169.807 91.4091 169.262 91.4091C168.661 91.4091 168.141 91.5582 167.702 91.8565C167.267 92.1506 166.933 92.5341 166.699 93.0071C166.464 93.4801 166.347 93.9872 166.347 94.5284V95.3977C166.347 96.1392 166.475 96.7678 166.73 97.2834C166.99 97.7947 167.35 98.1847 167.811 98.4531C168.271 98.7173 168.806 98.8494 169.415 98.8494C169.811 98.8494 170.169 98.794 170.489 98.6832C170.813 98.5682 171.092 98.3977 171.326 98.1719C171.561 97.9418 171.742 97.6562 171.87 97.3153L173.327 97.7244C173.174 98.2188 172.916 98.6534 172.554 99.0284C172.191 99.3991 171.744 99.6889 171.211 99.8977C170.679 100.102 170.08 100.205 169.415 100.205ZM177.284 94.0938V100H175.775V90.1818H177.233V91.7159H177.36C177.591 91.2173 177.94 90.8168 178.409 90.5142C178.877 90.2074 179.483 90.054 180.224 90.054C180.889 90.054 181.471 90.1903 181.969 90.4631C182.468 90.7315 182.855 91.1406 183.132 91.6903C183.409 92.2358 183.548 92.9261 183.548 93.7614V100H182.039V93.8636C182.039 93.0923 181.839 92.4915 181.439 92.0611C181.038 91.6264 180.488 91.4091 179.789 91.4091C179.308 91.4091 178.877 91.5135 178.498 91.7223C178.123 91.9311 177.827 92.2358 177.61 92.6364C177.392 93.0369 177.284 93.5227 177.284 94.0938ZM190.293 100.205C189.373 100.205 188.58 99.9872 187.915 99.5526C187.251 99.1179 186.739 98.5192 186.381 97.7564C186.023 96.9936 185.844 96.1222 185.844 95.142C185.844 94.1449 186.028 93.2649 186.394 92.5021C186.765 91.7351 187.28 91.1364 187.941 90.706C188.606 90.2713 189.381 90.054 190.268 90.054C190.958 90.054 191.58 90.1818 192.134 90.4375C192.688 90.6932 193.142 91.0511 193.496 91.5114C193.849 91.9716 194.069 92.5085 194.154 93.1222H192.645C192.53 92.6747 192.275 92.2784 191.878 91.9332C191.486 91.5838 190.958 91.4091 190.293 91.4091C189.705 91.4091 189.189 91.5625 188.746 91.8693C188.307 92.1719 187.964 92.6001 187.717 93.1541C187.474 93.7038 187.353 94.3494 187.353 95.0909C187.353 95.8494 187.472 96.5099 187.711 97.0724C187.954 97.6349 188.295 98.0717 188.733 98.3828C189.177 98.6939 189.697 98.8494 190.293 98.8494C190.685 98.8494 191.041 98.7812 191.361 98.6449C191.68 98.5085 191.951 98.3125 192.172 98.0568C192.394 97.8011 192.552 97.4943 192.645 97.1364H194.154C194.069 97.7159 193.858 98.2379 193.521 98.7024C193.189 99.1626 192.748 99.5291 192.198 99.8018C191.653 100.07 191.018 100.205 190.293 100.205ZM200.348 100.205C199.461 100.205 198.684 99.9936 198.015 99.5717C197.35 99.1499 196.83 98.5597 196.455 97.8011C196.084 97.0426 195.899 96.1562 195.899 95.142C195.899 94.1193 196.084 93.2266 196.455 92.4638C196.83 91.701 197.35 91.1087 198.015 90.6868C198.684 90.2649 199.461 90.054 200.348 90.054C201.234 90.054 202.01 90.2649 202.675 90.6868C203.344 91.1087 203.863 91.701 204.234 92.4638C204.609 93.2266 204.797 94.1193 204.797 95.142C204.797 96.1562 204.609 97.0426 204.234 97.8011C203.863 98.5597 203.344 99.1499 202.675 99.5717C202.01 99.9936 201.234 100.205 200.348 100.205ZM200.348 98.8494C201.021 98.8494 201.575 98.6768 202.01 98.3317C202.444 97.9865 202.766 97.5327 202.975 96.9702C203.184 96.4077 203.288 95.7983 203.288 95.142C203.288 94.4858 203.184 93.8743 202.975 93.3075C202.766 92.7408 202.444 92.2827 202.01 91.9332C201.575 91.5838 201.021 91.4091 200.348 91.4091C199.675 91.4091 199.121 91.5838 198.686 91.9332C198.251 92.2827 197.93 92.7408 197.721 93.3075C197.512 93.8743 197.407 94.4858 197.407 95.142C197.407 95.7983 197.512 96.4077 197.721 96.9702C197.93 97.5327 198.251 97.9865 198.686 98.3317C199.121 98.6768 199.675 98.8494 200.348 98.8494ZM208.608 94.0938V100H207.099V90.1818H208.557V91.7159H208.685C208.915 91.2173 209.264 90.8168 209.733 90.5142C210.202 90.2074 210.807 90.054 211.548 90.054C212.213 90.054 212.795 90.1903 213.293 90.4631C213.792 90.7315 214.18 91.1406 214.457 91.6903C214.734 92.2358 214.872 92.9261 214.872 93.7614V100H213.364V93.8636C213.364 93.0923 213.163 92.4915 212.763 92.0611C212.362 91.6264 211.813 91.4091 211.114 91.4091C210.632 91.4091 210.202 91.5135 209.822 91.7223C209.447 91.9311 209.151 92.2358 208.934 92.6364C208.717 93.0369 208.608 93.5227 208.608 94.0938ZM221.899 90.1818V91.4602H216.811V90.1818H221.899ZM218.294 87.8295H219.802V97.1875C219.802 97.6136 219.864 97.9332 219.987 98.1463C220.115 98.3551 220.277 98.4957 220.473 98.5682C220.673 98.6364 220.884 98.6705 221.106 98.6705C221.272 98.6705 221.409 98.6619 221.515 98.6449C221.622 98.6236 221.707 98.6065 221.771 98.5938L222.078 99.9489C221.975 99.9872 221.833 100.026 221.649 100.064C221.466 100.107 221.234 100.128 220.953 100.128C220.526 100.128 220.109 100.036 219.7 99.853C219.295 99.6697 218.958 99.3906 218.69 99.0156C218.426 98.6406 218.294 98.1676 218.294 97.5966V87.8295ZM224.168 100V90.1818H225.625V91.6648H225.727C225.906 91.179 226.23 90.7848 226.699 90.4822C227.168 90.1797 227.696 90.0284 228.284 90.0284C228.395 90.0284 228.534 90.0305 228.7 90.0348C228.866 90.0391 228.992 90.0455 229.077 90.054V91.5881C229.026 91.5753 228.909 91.5561 228.725 91.5305C228.546 91.5007 228.357 91.4858 228.156 91.4858C227.679 91.4858 227.253 91.5859 226.878 91.7862C226.507 91.9822 226.213 92.255 225.996 92.6044C225.783 92.9496 225.676 93.3437 225.676 93.7869V100H224.168ZM233.754 100.23C233.132 100.23 232.567 100.113 232.06 99.8786C231.553 99.6399 231.151 99.2969 230.852 98.8494C230.554 98.3977 230.405 97.8523 230.405 97.2131C230.405 96.6506 230.516 96.1946 230.737 95.8452C230.959 95.4915 231.255 95.2145 231.626 95.0142C231.996 94.8139 232.406 94.6648 232.853 94.5668C233.305 94.4645 233.759 94.3835 234.214 94.3239C234.811 94.2472 235.295 94.1896 235.665 94.1513C236.04 94.1087 236.313 94.0384 236.484 93.9403C236.658 93.8423 236.746 93.6719 236.746 93.429V93.3778C236.746 92.7472 236.573 92.2571 236.228 91.9077C235.887 91.5582 235.369 91.3835 234.675 91.3835C233.955 91.3835 233.39 91.5412 232.981 91.8565C232.572 92.1719 232.284 92.5085 232.118 92.8665L230.686 92.3551C230.942 91.7585 231.283 91.294 231.709 90.9616C232.139 90.625 232.608 90.3906 233.115 90.2585C233.626 90.1222 234.129 90.054 234.624 90.054C234.939 90.054 235.301 90.0923 235.71 90.169C236.124 90.2415 236.522 90.3928 236.906 90.6229C237.293 90.853 237.615 91.2003 237.871 91.6648C238.126 92.1293 238.254 92.7514 238.254 93.5312V100H236.746V98.6705H236.669C236.567 98.8835 236.396 99.1115 236.158 99.3544C235.919 99.5973 235.602 99.804 235.205 99.9744C234.809 100.145 234.325 100.23 233.754 100.23ZM233.984 98.875C234.581 98.875 235.084 98.7578 235.493 98.5234C235.906 98.2891 236.217 97.9865 236.426 97.6158C236.639 97.245 236.746 96.8551 236.746 96.446V95.0653C236.682 95.142 236.541 95.2124 236.324 95.2763C236.111 95.3359 235.864 95.3892 235.582 95.4361C235.305 95.4787 235.035 95.517 234.771 95.5511C234.511 95.581 234.3 95.6065 234.138 95.6278C233.746 95.679 233.379 95.7621 233.038 95.8771C232.702 95.9879 232.429 96.1562 232.22 96.3821C232.016 96.6037 231.913 96.9062 231.913 97.2898C231.913 97.8139 232.107 98.2102 232.495 98.4787C232.887 98.7429 233.384 98.875 233.984 98.875ZM244.715 100.205C243.897 100.205 243.175 99.9979 242.548 99.5845C241.922 99.1669 241.432 98.5788 241.078 97.8203C240.724 97.0575 240.547 96.1562 240.547 95.1165C240.547 94.0852 240.724 93.1903 241.078 92.4318C241.432 91.6733 241.924 91.0874 242.555 90.674C243.185 90.2607 243.914 90.054 244.741 90.054C245.38 90.054 245.885 90.1605 246.256 90.3736C246.631 90.5824 246.916 90.821 247.112 91.0895C247.312 91.3537 247.468 91.571 247.579 91.7415H247.706V86.9091H249.215V100H247.758V98.4915H247.579C247.468 98.6705 247.31 98.8963 247.106 99.169C246.901 99.4375 246.609 99.6783 246.23 99.8913C245.851 100.1 245.346 100.205 244.715 100.205ZM244.92 98.8494C245.525 98.8494 246.036 98.6918 246.454 98.3764C246.871 98.0568 247.189 97.6158 247.406 97.0533C247.623 96.4865 247.732 95.8324 247.732 95.0909C247.732 94.358 247.626 93.7166 247.412 93.1669C247.199 92.6129 246.884 92.1825 246.466 91.8757C246.049 91.5646 245.533 91.4091 244.92 91.4091C244.28 91.4091 243.748 91.5732 243.322 91.9013C242.9 92.2251 242.582 92.6662 242.369 93.2244C242.16 93.7784 242.056 94.4006 242.056 95.0909C242.056 95.7898 242.162 96.4247 242.376 96.9957C242.593 97.5625 242.912 98.0142 243.334 98.3509C243.76 98.6832 244.289 98.8494 244.92 98.8494ZM256.176 100.205C255.29 100.205 254.512 99.9936 253.843 99.5717C253.178 99.1499 252.658 98.5597 252.283 97.8011C251.912 97.0426 251.727 96.1562 251.727 95.142C251.727 94.1193 251.912 93.2266 252.283 92.4638C252.658 91.701 253.178 91.1087 253.843 90.6868C254.512 90.2649 255.29 90.054 256.176 90.054C257.062 90.054 257.838 90.2649 258.503 90.6868C259.172 91.1087 259.692 91.701 260.062 92.4638C260.437 93.2266 260.625 94.1193 260.625 95.142C260.625 96.1562 260.437 97.0426 260.062 97.8011C259.692 98.5597 259.172 99.1499 258.503 99.5717C257.838 99.9936 257.062 100.205 256.176 100.205ZM256.176 98.8494C256.849 98.8494 257.403 98.6768 257.838 98.3317C258.273 97.9865 258.594 97.5327 258.803 96.9702C259.012 96.4077 259.116 95.7983 259.116 95.142C259.116 94.4858 259.012 93.8743 258.803 93.3075C258.594 92.7408 258.273 92.2827 257.838 91.9332C257.403 91.5838 256.849 91.4091 256.176 91.4091C255.503 91.4091 254.949 91.5838 254.514 91.9332C254.079 92.2827 253.758 92.7408 253.549 93.3075C253.34 93.8743 253.236 94.4858 253.236 95.142C253.236 95.7983 253.34 96.4077 253.549 96.9702C253.758 97.5327 254.079 97.9865 254.514 98.3317C254.949 98.6768 255.503 98.8494 256.176 98.8494Z" fill="#101119"/>
<path d="M3.91177 43V12.2H17.9038C21.2478 12.2 24.1958 12.8453 26.7478 14.136C29.2998 15.3973 31.2944 17.172 32.7318 19.46C34.1691 21.748 34.8878 24.4613 34.8878 27.6C34.8878 30.7093 34.1691 33.4227 32.7318 35.74C31.2944 38.028 29.2998 39.8173 26.7478 41.108C24.1958 42.3693 21.2478 43 17.9038 43H3.91177ZM11.0398 37.148H17.5518C19.6051 37.148 21.3798 36.7667 22.8758 36.004C24.4011 35.212 25.5744 34.0973 26.3958 32.66C27.2464 31.2227 27.6718 29.536 27.6718 27.6C27.6718 25.6347 27.2464 23.948 26.3958 22.54C25.5744 21.1027 24.4011 20.0027 22.8758 19.24C21.3798 18.448 19.6051 18.052 17.5518 18.052H11.0398V37.148ZM51.5273 43.352C48.8287 43.352 46.4527 42.824 44.3993 41.768C42.3753 40.712 40.806 39.2747 39.6913 37.456C38.5767 35.608 38.0193 33.5107 38.0193 31.164C38.0193 28.788 38.562 26.6907 39.6473 24.872C40.762 23.024 42.2727 21.5867 44.1793 20.56C46.086 19.504 48.242 18.976 50.6473 18.976C52.9647 18.976 55.0473 19.4747 56.8953 20.472C58.7727 21.44 60.254 22.848 61.3393 24.696C62.4247 26.5147 62.9673 28.7 62.9673 31.252C62.9673 31.516 62.9527 31.824 62.9233 32.176C62.894 32.4987 62.8647 32.8067 62.8353 33.1H43.6073V29.096H59.2273L56.5873 30.284C56.5873 29.052 56.338 27.9813 55.8393 27.072C55.3407 26.1627 54.6513 25.4587 53.7713 24.96C52.8913 24.432 51.8647 24.168 50.6913 24.168C49.518 24.168 48.4767 24.432 47.5673 24.96C46.6873 25.4587 45.998 26.1773 45.4993 27.116C45.0007 28.0253 44.7513 29.1107 44.7513 30.372V31.428C44.7513 32.7187 45.03 33.8627 45.5873 34.86C46.174 35.828 46.9807 36.576 48.0073 37.104C49.0633 37.6027 50.2953 37.852 51.7033 37.852C52.9647 37.852 54.0647 37.6613 55.0033 37.28C55.9713 36.8987 56.8513 36.3267 57.6433 35.564L61.2953 39.524C60.21 40.756 58.846 41.7093 57.2033 42.384C55.5607 43.0293 53.6687 43.352 51.5273 43.352ZM75.5011 43.352C73.4771 43.352 71.5265 43.1173 69.6491 42.648C67.8011 42.1493 66.3345 41.5333 65.2491 40.8L67.5371 35.872C68.6225 36.5467 69.8985 37.104 71.3651 37.544C72.8611 37.9547 74.3278 38.16 75.7651 38.16C77.3491 38.16 78.4638 37.9693 79.1091 37.588C79.7838 37.2067 80.1211 36.6787 80.1211 36.004C80.1211 35.4467 79.8571 35.036 79.3291 34.772C78.8305 34.4787 78.1558 34.2587 77.3051 34.112C76.4545 33.9653 75.5158 33.8187 74.4891 33.672C73.4918 33.5253 72.4798 33.3347 71.4531 33.1C70.4265 32.836 69.4878 32.4547 68.6371 31.956C67.7865 31.4573 67.0971 30.7827 66.5691 29.932C66.0705 29.0813 65.8211 27.9813 65.8211 26.632C65.8211 25.136 66.2465 23.816 67.0971 22.672C67.9771 21.528 69.2385 20.6333 70.8811 19.988C72.5238 19.3133 74.4891 18.976 76.7771 18.976C78.3905 18.976 80.0331 19.152 81.7051 19.504C83.3771 19.856 84.7705 20.3693 85.8851 21.044L83.5971 25.928C82.4531 25.2533 81.2945 24.7987 80.1211 24.564C78.9771 24.3 77.8625 24.168 76.7771 24.168C75.2518 24.168 74.1371 24.3733 73.4331 24.784C72.7291 25.1947 72.3771 25.7227 72.3771 26.368C72.3771 26.9547 72.6265 27.3947 73.1251 27.688C73.6531 27.9813 74.3425 28.216 75.1931 28.392C76.0438 28.568 76.9678 28.7293 77.9651 28.876C78.9918 28.9933 80.0185 29.184 81.0451 29.448C82.0718 29.712 82.9958 30.0933 83.8171 30.592C84.6678 31.0613 85.3571 31.7213 85.8851 32.572C86.4131 33.3933 86.6771 34.4787 86.6771 35.828C86.6771 37.2947 86.2371 38.6 85.3571 39.744C84.4771 40.8587 83.2011 41.7387 81.5291 42.384C79.8865 43.0293 77.8771 43.352 75.5011 43.352ZM102.352 43.352C99.8001 43.352 97.5268 42.8387 95.5321 41.812C93.5375 40.756 91.9681 39.304 90.8241 37.456C89.7095 35.608 89.1521 33.5107 89.1521 31.164C89.1521 28.788 89.7095 26.6907 90.8241 24.872C91.9681 23.024 93.5375 21.5867 95.5321 20.56C97.5268 19.504 99.8001 18.976 102.352 18.976C104.845 18.976 107.016 19.504 108.864 20.56C110.712 21.5867 112.076 23.068 112.956 25.004L107.632 27.864C107.016 26.7493 106.239 25.928 105.3 25.4C104.391 24.872 103.393 24.608 102.308 24.608C101.135 24.608 100.079 24.872 99.1401 25.4C98.2015 25.928 97.4535 26.676 96.8961 27.644C96.3681 28.612 96.1041 29.7853 96.1041 31.164C96.1041 32.5427 96.3681 33.716 96.8961 34.684C97.4535 35.652 98.2015 36.4 99.1401 36.928C100.079 37.456 101.135 37.72 102.308 37.72C103.393 37.72 104.391 37.4707 105.3 36.972C106.239 36.444 107.016 35.608 107.632 34.464L112.956 37.368C112.076 39.2747 110.712 40.756 108.864 41.812C107.016 42.8387 104.845 43.352 102.352 43.352ZM126.896 43.352C124.931 43.352 123.171 42.9707 121.616 42.208C120.091 41.4453 118.903 40.2867 118.052 38.732C117.202 37.148 116.776 35.1387 116.776 32.704V19.328H123.64V31.692C123.64 33.6573 124.051 35.1093 124.872 36.048C125.723 36.9573 126.911 37.412 128.436 37.412C129.492 37.412 130.431 37.192 131.252 36.752C132.074 36.2827 132.719 35.5787 133.188 34.64C133.658 33.672 133.892 32.4693 133.892 31.032V19.328H140.756V43H134.244V36.488L135.432 38.38C134.64 40.0227 133.467 41.2693 131.912 42.12C130.387 42.9413 128.715 43.352 126.896 43.352ZM147.115 43V10.352H153.979V43H147.115ZM174.342 43.352C172.347 43.352 170.602 42.912 169.106 42.032C167.61 41.152 166.436 39.8173 165.586 38.028C164.764 36.2093 164.354 33.9213 164.354 31.164C164.354 28.3773 164.75 26.0893 165.542 24.3C166.334 22.5107 167.478 21.176 168.974 20.296C170.47 19.416 172.259 18.976 174.342 18.976C176.571 18.976 178.566 19.4893 180.326 20.516C182.115 21.5133 183.523 22.9213 184.55 24.74C185.606 26.5587 186.134 28.7 186.134 31.164C186.134 33.6573 185.606 35.8133 184.55 37.632C183.523 39.4507 182.115 40.8587 180.326 41.856C178.566 42.8533 176.571 43.352 174.342 43.352ZM160.35 51.536V19.328H166.906V24.168L166.774 31.208L167.214 38.204V51.536H160.35ZM173.154 37.72C174.298 37.72 175.31 37.456 176.19 36.928C177.099 36.4 177.818 35.652 178.346 34.684C178.903 33.6867 179.182 32.5133 179.182 31.164C179.182 29.7853 178.903 28.612 178.346 27.644C177.818 26.676 177.099 25.928 176.19 25.4C175.31 24.872 174.298 24.608 173.154 24.608C172.01 24.608 170.983 24.872 170.074 25.4C169.164 25.928 168.446 26.676 167.918 27.644C167.39 28.612 167.126 29.7853 167.126 31.164C167.126 32.5133 167.39 33.6867 167.918 34.684C168.446 35.652 169.164 36.4 170.074 36.928C170.983 37.456 172.01 37.72 173.154 37.72ZM202.477 43.352C199.778 43.352 197.402 42.824 195.349 41.768C193.325 40.712 191.755 39.2747 190.641 37.456C189.526 35.608 188.969 33.5107 188.969 31.164C188.969 28.788 189.511 26.6907 190.597 24.872C191.711 23.024 193.222 21.5867 195.129 20.56C197.035 19.504 199.191 18.976 201.597 18.976C203.914 18.976 205.997 19.4747 207.845 20.472C209.722 21.44 211.203 22.848 212.289 24.696C213.374 26.5147 213.917 28.7 213.917 31.252C213.917 31.516 213.902 31.824 213.873 32.176C213.843 32.4987 213.814 32.8067 213.785 33.1H194.557V29.096H210.177L207.537 30.284C207.537 29.052 207.287 27.9813 206.789 27.072C206.29 26.1627 205.601 25.4587 204.721 24.96C203.841 24.432 202.814 24.168 201.641 24.168C200.467 24.168 199.426 24.432 198.517 24.96C197.637 25.4587 196.947 26.1773 196.449 27.116C195.95 28.0253 195.701 29.1107 195.701 30.372V31.428C195.701 32.7187 195.979 33.8627 196.537 34.86C197.123 35.828 197.93 36.576 198.957 37.104C200.013 37.6027 201.245 37.852 202.653 37.852C203.914 37.852 205.014 37.6613 205.953 37.28C206.921 36.8987 207.801 36.3267 208.593 35.564L212.245 39.524C211.159 40.756 209.795 41.7093 208.153 42.384C206.51 43.0293 204.618 43.352 202.477 43.352ZM233.543 27.556C232.37 27.556 231.358 27.16 230.507 26.368C229.686 25.5467 229.275 24.5053 229.275 23.244C229.275 21.9827 229.686 20.9707 230.507 20.208C231.358 19.416 232.37 19.02 233.543 19.02C234.746 19.02 235.758 19.416 236.579 20.208C237.401 20.9707 237.811 21.9827 237.811 23.244C237.811 24.5053 237.401 25.5467 236.579 26.368C235.758 27.16 234.746 27.556 233.543 27.556ZM233.543 43.352C232.37 43.352 231.358 42.956 230.507 42.164C229.686 41.3427 229.275 40.3013 229.275 39.04C229.275 37.7787 229.686 36.7667 230.507 36.004C231.358 35.212 232.37 34.816 233.543 34.816C234.746 34.816 235.758 35.212 236.579 36.004C237.401 36.7667 237.811 37.7787 237.811 39.04C237.811 40.3013 237.401 41.3427 236.579 42.164C235.758 42.956 234.746 43.352 233.543 43.352ZM248.007 51.536C246.247 48.8667 244.883 45.7867 243.915 42.296C242.976 38.776 242.507 34.992 242.507 30.944C242.507 26.896 242.976 23.112 243.915 19.592C244.883 16.0427 246.247 12.9627 248.007 10.352H254.563C252.715 13.6667 251.366 17.0107 250.515 20.384C249.664 23.728 249.239 27.248 249.239 30.944C249.239 34.64 249.664 38.1747 250.515 41.548C251.366 44.892 252.715 48.2213 254.563 51.536H248.007ZM258.673 32.308L257.309 12.2H265.493L264.129 32.308H258.673ZM261.401 43.352C260.169 43.352 259.157 42.956 258.365 42.164C257.573 41.372 257.177 40.4333 257.177 39.348C257.177 38.2333 257.573 37.3093 258.365 36.576C259.157 35.8133 260.169 35.432 261.401 35.432C262.663 35.432 263.675 35.8133 264.437 36.576C265.229 37.3093 265.625 38.2333 265.625 39.348C265.625 40.4333 265.229 41.372 264.437 42.164C263.675 42.956 262.663 43.352 261.401 43.352Z" fill="#101119"/>
</svg>
