<svg width="37" height="37" viewBox="0 0 37 37" fill="none" xmlns="http://www.w3.org/2000/svg">
<path d="M17.4593 26.2085H19.7718V19.8106H26.2083V17.4981H19.7718V10.7918H17.4593V17.4981H10.7916V19.8106H17.4593V26.2085ZM18.5102 33.9168C16.3844 33.9168 14.3866 33.5121 12.5169 32.7028C10.6473 31.8934 9.01225 30.7885 7.6119 29.3882C6.21155 27.9878 5.10669 26.3519 4.29731 24.4802C3.48794 22.6087 3.08325 20.6089 3.08325 18.4809C3.08325 16.3529 3.48794 14.3531 4.29731 12.4815C5.10669 10.6099 6.21155 8.98037 7.6119 7.59287C9.01225 6.20537 10.6482 5.10693 12.5198 4.29756C14.3914 3.48818 16.3912 3.0835 18.5192 3.0835C20.6472 3.0835 22.647 3.48818 24.5185 4.29756C26.3902 5.10693 28.0197 6.20537 29.4072 7.59287C30.7947 8.98037 31.8931 10.612 32.7025 12.4877C33.5119 14.3634 33.9166 16.3641 33.9166 18.4899C33.9166 20.6157 33.5119 22.6135 32.7025 24.4831C31.8931 26.3528 30.7947 27.9855 29.4072 29.3811C28.0197 30.7767 26.3881 31.8816 24.5124 32.6957C22.6367 33.5098 20.636 33.9168 18.5102 33.9168ZM18.5192 31.6043C22.155 31.6043 25.2447 30.326 27.7885 27.7694C30.3322 25.2128 31.6041 22.1167 31.6041 18.4809C31.6041 14.8451 30.3346 11.7554 27.7957 9.21162C25.2568 6.66787 22.1582 5.396 18.4999 5.396C14.877 5.396 11.7872 6.66546 9.23065 9.20438C6.67405 11.7433 5.39575 14.8419 5.39575 18.5002C5.39575 22.1231 6.67405 25.2128 9.23065 27.7694C11.7872 30.326 14.8834 31.6043 18.5192 31.6043Z" fill="white"/>
</svg>
